<svg xmlns="http://www.w3.org/2000/svg" version="1.1" xmlns:xlink="http://www.w3.org/1999/xlink" xmlns:svgjs="http://svgjs.dev/svgjs" width="1440" height="560" preserveAspectRatio="none" viewBox="0 0 1440 560"><g mask="url(&quot;#SvgjsMask1121&quot;)" fill="none"><rect width="1440" height="560" x="0" y="0" fill="rgba(23, 140, 229, 1)"></rect><path d="M0,292.345C60.731,286.956,129.238,313.699,178.626,277.947C227.879,242.293,221.242,167.868,247.628,113.088C274.773,56.731,340.486,14.101,335.756,-48.274C331.029,-110.61,266.206,-147.967,224.314,-194.369C183.358,-239.734,149.82,-294.301,93.096,-317.057C33.791,-340.848,-37.04,-349.984,-94.643,-322.325C-150.535,-295.488,-169.559,-227.932,-202.244,-175.246C-229.591,-131.164,-255.376,-88.519,-270.476,-38.889C-287.946,18.531,-308.6,76.698,-296.804,135.546C-283.379,202.521,-260.626,279.655,-200.229,311.562C-139.718,343.529,-68.168,298.393,0,292.345" fill="#1376c0"></path><path d="M1440 1060.45C1530.813 1042.29 1600.252 979.3430000000001 1683.751 939.284 1782.088 892.106 1935.257 905.857 1974.415 804.059 2014.3519999999999 700.236 1877.074 609.178 1852.459 500.697 1830.789 405.196 1901.319 289.732 1840.326 213.11599999999999 1779.629 136.87099999999998 1657.956 163.54000000000002 1563.86 138.173 1472.415 113.52100000000002 1384.85 36.22000000000003 1294.977 66.09899999999999 1205.032 96.00200000000001 1189.952 218.29000000000002 1122.518 284.901 1046.7440000000001 359.75 911.296 378.23 876.932 479.043 842.6 579.764 910.685 684.771 952.925 782.44 995.971 881.972 1030.1770000000001 997.393 1124.358 1051.149 1217.665 1104.406 1334.65 1081.517 1440 1060.45" fill="#399eeb"></path></g><defs><mask id="SvgjsMask1121"><rect width="1440" height="560" fill="#ffffff"></rect></mask></defs></svg>